<mxfile host="app.diagrams.net" modified="2024-06-04T12:57:37.778Z" agent="Mozilla/5.0 (Windows NT 10.0; Win64; x64) AppleWebKit/537.36 (KHTML, like Gecko) Chrome/122.0.0.0 YaBrowser/24.4.0.0 Safari/537.36" etag="gsXdYh2bRIj-9_58R5dr" version="24.4.13" type="device">
  <diagram name="Страница — 1" id="agtI-MtF-KrMZpASfsAU">
    <mxGraphModel dx="1340" dy="732" grid="1" gridSize="10" guides="1" tooltips="1" connect="1" arrows="1" fold="1" page="1" pageScale="1" pageWidth="827" pageHeight="1169" math="0" shadow="0">
      <root>
        <mxCell id="0" />
        <mxCell id="1" parent="0" />
        <mxCell id="WvvfJym7HSnDjmJ--_96-1" value="Управляющий проектом" style="swimlane;whiteSpace=wrap;html=1;" vertex="1" parent="1">
          <mxGeometry x="130" y="70" width="200" height="930" as="geometry" />
        </mxCell>
        <mxCell id="WvvfJym7HSnDjmJ--_96-8" style="edgeStyle=orthogonalEdgeStyle;rounded=0;orthogonalLoop=1;jettySize=auto;html=1;" edge="1" parent="WvvfJym7HSnDjmJ--_96-1" source="WvvfJym7HSnDjmJ--_96-6" target="WvvfJym7HSnDjmJ--_96-7">
          <mxGeometry relative="1" as="geometry" />
        </mxCell>
        <mxCell id="WvvfJym7HSnDjmJ--_96-6" value="Акт начала разработки" style="rounded=1;whiteSpace=wrap;html=1;" vertex="1" parent="WvvfJym7HSnDjmJ--_96-1">
          <mxGeometry x="40" y="50" width="120" height="60" as="geometry" />
        </mxCell>
        <mxCell id="WvvfJym7HSnDjmJ--_96-7" value="Требования к системе" style="rounded=1;whiteSpace=wrap;html=1;" vertex="1" parent="WvvfJym7HSnDjmJ--_96-1">
          <mxGeometry x="40" y="170" width="120" height="60" as="geometry" />
        </mxCell>
        <mxCell id="WvvfJym7HSnDjmJ--_96-12" value="Оформление ТЗ" style="rounded=1;whiteSpace=wrap;html=1;" vertex="1" parent="WvvfJym7HSnDjmJ--_96-1">
          <mxGeometry x="30" y="380" width="120" height="60" as="geometry" />
        </mxCell>
        <mxCell id="WvvfJym7HSnDjmJ--_96-15" style="edgeStyle=orthogonalEdgeStyle;rounded=0;orthogonalLoop=1;jettySize=auto;html=1;exitX=0.5;exitY=1;exitDx=0;exitDy=0;" edge="1" parent="WvvfJym7HSnDjmJ--_96-1" source="WvvfJym7HSnDjmJ--_96-9">
          <mxGeometry relative="1" as="geometry">
            <mxPoint x="230" y="350" as="sourcePoint" />
            <mxPoint x="90" y="380" as="targetPoint" />
          </mxGeometry>
        </mxCell>
        <mxCell id="WvvfJym7HSnDjmJ--_96-24" style="edgeStyle=orthogonalEdgeStyle;rounded=0;orthogonalLoop=1;jettySize=auto;html=1;" edge="1" parent="WvvfJym7HSnDjmJ--_96-1" source="WvvfJym7HSnDjmJ--_96-21" target="WvvfJym7HSnDjmJ--_96-23">
          <mxGeometry relative="1" as="geometry" />
        </mxCell>
        <mxCell id="WvvfJym7HSnDjmJ--_96-21" value="Составление акта об окончании разработки" style="rounded=1;whiteSpace=wrap;html=1;" vertex="1" parent="WvvfJym7HSnDjmJ--_96-1">
          <mxGeometry x="40" y="740" width="120" height="60" as="geometry" />
        </mxCell>
        <mxCell id="WvvfJym7HSnDjmJ--_96-23" value="" style="ellipse;whiteSpace=wrap;html=1;aspect=fixed;" vertex="1" parent="WvvfJym7HSnDjmJ--_96-1">
          <mxGeometry x="70" y="830" width="60" height="60" as="geometry" />
        </mxCell>
        <mxCell id="WvvfJym7HSnDjmJ--_96-25" value="Окончание разработки" style="text;html=1;align=center;verticalAlign=middle;whiteSpace=wrap;rounded=0;" vertex="1" parent="WvvfJym7HSnDjmJ--_96-1">
          <mxGeometry x="70" y="890" width="60" height="30" as="geometry" />
        </mxCell>
        <mxCell id="WvvfJym7HSnDjmJ--_96-2" value="Разработчики" style="swimlane;whiteSpace=wrap;html=1;" vertex="1" parent="1">
          <mxGeometry x="330" y="70" width="200" height="930" as="geometry" />
        </mxCell>
        <mxCell id="WvvfJym7HSnDjmJ--_96-9" value="Проверка реализуемости требований" style="rounded=1;whiteSpace=wrap;html=1;" vertex="1" parent="WvvfJym7HSnDjmJ--_96-2">
          <mxGeometry x="40" y="280" width="120" height="60" as="geometry" />
        </mxCell>
        <mxCell id="WvvfJym7HSnDjmJ--_96-16" value="Разработка проекта" style="rounded=1;whiteSpace=wrap;html=1;" vertex="1" parent="WvvfJym7HSnDjmJ--_96-2">
          <mxGeometry x="40" y="470" width="120" height="60" as="geometry" />
        </mxCell>
        <mxCell id="WvvfJym7HSnDjmJ--_96-3" value="Тестировщик" style="swimlane;whiteSpace=wrap;html=1;" vertex="1" parent="1">
          <mxGeometry x="530" y="70" width="200" height="930" as="geometry" />
        </mxCell>
        <mxCell id="WvvfJym7HSnDjmJ--_96-18" value="Тестирование проекта" style="rounded=1;whiteSpace=wrap;html=1;" vertex="1" parent="WvvfJym7HSnDjmJ--_96-3">
          <mxGeometry x="40" y="580" width="120" height="60" as="geometry" />
        </mxCell>
        <mxCell id="WvvfJym7HSnDjmJ--_96-11" style="edgeStyle=orthogonalEdgeStyle;rounded=0;orthogonalLoop=1;jettySize=auto;html=1;entryX=0.5;entryY=0;entryDx=0;entryDy=0;" edge="1" parent="1" source="WvvfJym7HSnDjmJ--_96-7" target="WvvfJym7HSnDjmJ--_96-9">
          <mxGeometry relative="1" as="geometry">
            <Array as="points">
              <mxPoint x="230" y="320" />
              <mxPoint x="430" y="320" />
            </Array>
          </mxGeometry>
        </mxCell>
        <mxCell id="WvvfJym7HSnDjmJ--_96-17" style="edgeStyle=orthogonalEdgeStyle;rounded=0;orthogonalLoop=1;jettySize=auto;html=1;entryX=0.5;entryY=0;entryDx=0;entryDy=0;" edge="1" parent="1" source="WvvfJym7HSnDjmJ--_96-12" target="WvvfJym7HSnDjmJ--_96-16">
          <mxGeometry relative="1" as="geometry">
            <Array as="points">
              <mxPoint x="220" y="530" />
              <mxPoint x="430" y="530" />
            </Array>
          </mxGeometry>
        </mxCell>
        <mxCell id="WvvfJym7HSnDjmJ--_96-19" style="edgeStyle=orthogonalEdgeStyle;rounded=0;orthogonalLoop=1;jettySize=auto;html=1;entryX=0.5;entryY=0;entryDx=0;entryDy=0;" edge="1" parent="1" source="WvvfJym7HSnDjmJ--_96-16" target="WvvfJym7HSnDjmJ--_96-18">
          <mxGeometry relative="1" as="geometry">
            <Array as="points">
              <mxPoint x="430" y="620" />
              <mxPoint x="630" y="620" />
            </Array>
          </mxGeometry>
        </mxCell>
        <mxCell id="WvvfJym7HSnDjmJ--_96-22" style="edgeStyle=orthogonalEdgeStyle;rounded=0;orthogonalLoop=1;jettySize=auto;html=1;entryX=0.5;entryY=0;entryDx=0;entryDy=0;" edge="1" parent="1" source="WvvfJym7HSnDjmJ--_96-18" target="WvvfJym7HSnDjmJ--_96-21">
          <mxGeometry relative="1" as="geometry">
            <Array as="points">
              <mxPoint x="630" y="740" />
              <mxPoint x="230" y="740" />
            </Array>
          </mxGeometry>
        </mxCell>
      </root>
    </mxGraphModel>
  </diagram>
</mxfile>
